<?xml version="1.0" standalone="no"?>
<!DOCTYPE svg PUBLIC "-//W3C//DTD SVG 20010904//EN"
 "http://www.w3.org/TR/2001/REC-SVG-20010904/DTD/svg10.dtd">
<svg version="1.0" xmlns="http://www.w3.org/2000/svg"
 width="640.000000pt" height="640.000000pt" viewBox="0 0 640.000000 640.000000"
 preserveAspectRatio="xMidYMid meet">
<metadata>
Created by potrace 1.11, written by Peter Selinger 2001-2013
</metadata>
<g transform="translate(0.000000,640.000000) scale(0.100000,-0.100000)"
fill="#000000" stroke="none">
<path d="M2998 6396 c-1 -2 -39 -6 -83 -10 -70 -6 -220 -26 -310 -42 -103 -18
-373 -92 -450 -123 -11 -5 -65 -26 -120 -47 -197 -76 -450 -214 -640 -348
-289 -204 -580 -499 -787 -798 -260 -375 -445 -827 -518 -1268 -21 -126 -24
-144 -40 -300 -8 -87 -7 -551 2 -566 3 -5 9 -41 12 -80 4 -39 9 -82 11 -95 5
-25 22 -121 31 -174 17 -99 118 -442 154 -520 5 -11 21 -49 36 -85 99 -244
273 -535 457 -765 94 -116 349 -374 457 -461 290 -233 582 -401 910 -521 111
-41 338 -108 395 -117 22 -4 56 -11 75 -16 35 -9 60 -13 182 -30 133 -19 237
-25 438 -25 211 1 338 9 460 31 14 2 43 7 65 10 130 18 393 90 560 152 604
226 1133 642 1507 1187 234 342 408 753 493 1170 20 94 20 96 34 200 6 44 14
100 17 125 10 66 12 541 4 597 -4 26 -11 82 -15 123 -4 41 -9 84 -11 95 -3 11
-11 58 -20 105 -27 153 -120 479 -164 575 -5 11 -21 49 -36 85 -68 168 -181
375 -303 555 -202 300 -512 613 -811 822 -406 282 -890 472 -1355 532 -44 6
-100 13 -125 16 -47 7 -506 16 -512 11z"/>
</g>
</svg>
